<svg width="32" height="32" viewBox="0 0 32 32" fill="none" xmlns="http://www.w3.org/2000/svg">
<g id="robot-line-svgrepo-com 1">
<path id="Vector" d="M10.6667 26.6666H6.66675V24M10.6667 26.6666V21.3333H16.0001M10.6667 26.6666H16.0001M6.66675 24H5.33341C4.62617 24 3.94789 23.719 3.4478 23.2189C2.9477 22.7188 2.66675 22.0405 2.66675 21.3333V20C2.66675 19.2927 2.9477 18.6144 3.4478 18.1143C3.94789 17.6142 4.62617 17.3333 5.33341 17.3333H6.66675M6.66675 24V17.3333M16.0001 21.3333H21.3334V26.6666M16.0001 21.3333V26.6666M16.0001 26.6666H21.3334M21.3334 26.6666H25.3334V24M25.3334 24H26.6667C27.374 24 28.0523 23.719 28.5524 23.2189C29.0525 22.7188 29.3334 22.0405 29.3334 21.3333V20C29.3334 19.2927 29.0525 18.6144 28.5524 18.1143C28.0523 17.6142 27.374 17.3333 26.6667 17.3333H25.3334M25.3334 24V17.3333M16.0001 12H12.0001C10.5856 12 9.22904 12.5619 8.22884 13.5621C7.22865 14.5622 6.66675 15.9188 6.66675 17.3333M16.0001 12H20.0001C21.4146 12 22.7711 12.5619 23.7713 13.5621C24.7715 14.5622 25.3334 15.9188 25.3334 17.3333M16.0001 12V6.66663M6.66675 19.3333V22M12.0001 17.3333H12.0014M20.0001 17.3333H20.0014" stroke="white" stroke-width="2" stroke-linecap="round" stroke-linejoin="round"/>
<path id="Vector_2" d="M16.0001 8.00004C16.7365 8.00004 17.3334 7.40309 17.3334 6.66671C17.3334 5.93033 16.7365 5.33337 16.0001 5.33337C15.2637 5.33337 14.6667 5.93033 14.6667 6.66671C14.6667 7.40309 15.2637 8.00004 16.0001 8.00004Z" stroke="white" stroke-width="2" stroke-linecap="round" stroke-linejoin="round"/>
</g>
</svg>
