<svg width="32" height="27" viewBox="0 0 32 32" fill="none" xmlns="http://www.w3.org/2000/svg">
<path d="M31.0804 14.4613L28.6451 12.0256C28.3056 11.6854 27.8446 11.4946 27.3646 11.4946C26.8838 11.4946 26.4229 11.6858 26.0837 12.0256L25.41 12.6996V0H0.388672V32H25.41V22.7841L31.0804 17.0224C31.7882 16.3156 31.7882 15.1684 31.0804 14.4613ZM22.6927 29.2833H3.10538V2.71705H22.693V15.4758L20.3141 17.8557V16H5.71061V17.868H20.3011L15.9941 22.1764C15.7814 22.3895 15.6248 22.6528 15.539 22.9403L14.5025 26.4247C14.3131 27.0621 14.4882 27.7518 14.9583 28.2219C15.3023 28.5669 15.765 28.7526 16.2389 28.7526C16.4112 28.7526 16.5849 28.728 16.7552 28.677L20.2399 27.641C20.5285 27.5551 20.7908 27.3989 21.0042 27.1858L22.6923 25.4987L22.6927 29.2833ZM19.646 25.96L16.1613 26.9964L17.1977 23.5117L25.0161 15.6902L27.4685 18.1422L19.646 25.96ZM28.268 17.2501L25.833 14.8145L27.2863 13.3606L29.7219 15.7959L28.268 17.2501Z" fill="white"/>
<path d="M20.3145 6.00952H5.71094V7.87719H20.3145V6.00952Z" fill="white"/>
<path d="M20.3145 10.9342H5.71094V12.8026H20.3145V10.9342Z" fill="white"/>
</svg>
