<svg width="32" height="32" viewBox="0 0 32 32" fill="none" xmlns="http://www.w3.org/2000/svg">
<path d="M21.3334 10.6666L10.6667 22.6666M10.6667 10.6666L21.3334 22.6666" stroke="white" stroke-width="2" stroke-linecap="round" stroke-linejoin="round"/>
<path d="M29.2425 16.8415V16.4919C27.0506 16.2848 25.9334 15.2622 25.9334 13.3981V10.2654C25.9334 8.28483 25.1698 7.49519 23.2465 7.49519H22.6667V5.33337H23.5435C27.1779 5.33337 28.8324 6.77027 28.8324 9.9159V12.5178C28.8324 14.5243 29.6667 15.2233 32.0001 15.2363V18.0971C29.6385 18.1101 28.8324 18.8091 28.8324 20.7897V23.301C28.8324 26.5243 27.1779 28 23.5435 28H22.6667V25.8512H23.2465C25.1556 25.8512 25.9334 25.0486 25.9334 23.0809V19.9612C25.9334 18.0712 27.0789 17.0356 29.2425 16.8415Z" fill="white"/>
<path d="M2.75749 16.8415V16.4919C4.94941 16.2848 6.06659 15.2622 6.06659 13.3981V10.2654C6.06659 8.28483 6.83022 7.49519 8.75345 7.49519H9.33325V5.33337H8.45648C4.82214 5.33337 3.1676 6.77027 3.1676 9.9159V12.5178C3.1676 14.5243 2.33325 15.2233 -8.10623e-05 15.2363V18.0971C2.36154 18.1101 3.1676 18.8091 3.1676 20.7897V23.301C3.1676 26.5243 4.82214 28 8.45648 28H9.33325V25.8512H8.75345C6.84436 25.8512 6.06659 25.0486 6.06659 23.0809V19.9612C6.06659 18.0712 4.92113 17.0356 2.75749 16.8415Z" fill="white"/>
</svg>
